<svg xmlns="http://www.w3.org/2000/svg" xmlns:svg="http://www.w3.org/2000/svg" id="svg3" width="24" height="24" version="1.1" viewBox="0 0 24 24" xml:space="preserve"><defs id="defs3"><clipPath id="clip0_8991_35043"><rect id="rect5" width="10" height="10" fill="#fff"/></clipPath><clipPath id="clip0_8991_35043-9"><rect id="rect5-5" width="10" height="10" x="0" y="0" fill="#fff"/></clipPath><clipPath id="clip0_8991_35043-1"><rect id="rect5-0" width="10" height="10" x="0" y="0" fill="#fff"/></clipPath><clipPath id="clip0_252_3415"><rect id="rect20" width="10" height="10" fill="#fff"/></clipPath><clipPath id="clip0_50_344"><rect id="rect35" width="10" height="10" fill="#fff"/></clipPath></defs><g style="display:inline;fill:none" id="g13" transform="matrix(2.4421817,0,0,2.441627,-0.20729439,-0.13100698)"><g id="g35" clip-path="url(#clip0_50_344)"><g id="g27" transform="translate(-0.00133884,0.08835169)" style="stroke:gray;stroke-opacity:1"><path id="path15" stroke="#707273" stroke-width=".5" d="m 7.1752759,7.5524659 1.05789,1.03316 1.05788,-1.03343" style="display:inline;fill:none;stroke:gray;stroke-opacity:1"/><path id="path11-1" stroke="#707273" stroke-width=".5" d="m 7.1752755,4.3789739 1.05789,1.03316 1.05788,-1.03344" style="display:inline;fill:none;stroke:gray;stroke-opacity:1"/><path id="path25" stroke="#707273" stroke-width=".5" d="m 7.1752763,1.0982289 1.05788,1.03316 1.05789,-1.03344" style="display:inline;fill:none;stroke:gray;stroke-opacity:1"/><path id="path9-2" stroke="#707273" stroke-width=".5" d="m 5.5935505,5.9754635 1.05788,1.03316 1.05789,-1.03344" style="display:inline;stroke:gray;stroke-opacity:1"/><path id="path5" stroke="#707273" stroke-width=".5" d="m 5.5935505,2.6953139 1.05788,1.03316 1.05789,-1.03344" style="display:inline;fill:none;stroke:gray;stroke-opacity:1"/><path id="path13" stroke="#707273" stroke-width=".5" d="m 3.9429455,7.5524659 1.05789,1.03316 1.05788,-1.03343" style="display:inline;stroke:gray;stroke-opacity:1"/><path id="path7-3" stroke="#707273" stroke-width=".5" d="m 3.9429459,4.3789739 1.05788,1.03316 1.05789,-1.03344" style="display:inline;fill:none;stroke:gray;stroke-opacity:1"/><path id="path3-1" stroke="#707273" stroke-width=".5" d="m 3.9429459,1.0982289 1.05788,1.03316 1.05789,-1.03344" style="display:inline;fill:none;stroke:gray;stroke-opacity:1"/><path id="path17" stroke="#707273" stroke-width=".5" d="m 2.2932109,5.9754593 1.05788,1.03316 1.05789,-1.03343" style="display:inline;stroke:gray;stroke-opacity:1"/><path id="path1-6" stroke="#707273" stroke-width=".5" d="m 2.2932105,2.6953139 1.05788,1.03316 1.05789,-1.03344" style="display:inline;fill:none;stroke:gray;stroke-opacity:1"/><path id="path19" stroke="#707273" stroke-width=".5" d="m 0.74080968,7.6796443 0.92443402,0.90584 1.05789,-1.03343" style="display:inline;stroke:gray;stroke-opacity:1"/><path id="path21" stroke="#707273" stroke-width=".5" d="m 0.67393847,4.3789739 1.05788703,1.03316 1.05788,-1.03344" style="display:inline;stroke:gray;stroke-opacity:1"/><path id="path23" stroke="#707273" stroke-width=".5" d="m 0.70601573,1.1827404 0.99192197,0.9495 1.05789,-1.03344" style="display:inline;stroke:gray;stroke-opacity:1"/></g><path id="path28" stroke="#262e30" stroke-width=".5" d="M 9.32591,5.65771 5.6773,9.30652" style="display:inline;stroke-width:.50001959;stroke-dasharray:none;stroke:#225158;stroke-opacity:1"/><path id="path29" stroke="#262e30" stroke-width=".5" d="M 4.43306,0.724121 0.674093,4.48328" style="display:inline;stroke-width:.50001959;stroke-dasharray:none;stroke:#225158;stroke-opacity:1"/><path id="path30" stroke="#262e30" stroke-width=".5" d="M 9.27161,2.4071 2.42689,9.2522" style="display:inline;stroke-width:.50001959;stroke-dasharray:none;stroke:#225158;stroke-opacity:1"/><path id="path31" stroke="#262e30" stroke-width=".5" d="M 7.67725,0.693481 0.68421,7.68688" style="display:inline;stroke-width:.50001959;stroke-dasharray:none;stroke:#225158;stroke-opacity:1"/><path id="path32" stroke="#262e30" stroke-width=".5" d="M 4.34229,9.32598 0.693487,5.67737" style="display:inline;stroke:#009688;stroke-opacity:1"/><path id="path33" stroke="#262e30" stroke-width=".5" d="M 9.27588,4.43303 5.51673,0.674072" style="display:inline;stroke:#009688;stroke-opacity:1"/><path id="path34" stroke="#262e30" stroke-width=".5" d="M 7.5929,9.27161 0.747808,2.42688" style="display:inline;stroke:#009688;stroke-opacity:1"/><path id="path35" stroke="#262e30" stroke-width=".5" d="M 9.30652,7.67724 2.31313,0.684204" style="display:inline;stroke:#009688;stroke-opacity:1"/></g></g><path style="display:inline;fill:none;stroke:#949494;stroke-linecap:round;stroke-linejoin:round" id="path3" d="m 3.499443,1.581703 h 17 a 2,2 0 0 1 2,2 v 16.999999 a 2,2 0 0 1 -2,2 h -17 a 2,2 0 0 1 -2,-2 V 3.581703 a 2,2 0 0 1 2,-2 z"/></svg>