<svg xmlns="http://www.w3.org/2000/svg" xmlns:svg="http://www.w3.org/2000/svg" id="svg3" width="24" height="24" version="1.1" viewBox="0 0 24 24" xml:space="preserve"><defs id="defs3"><clipPath id="clip0_8991_35043"><rect id="rect5" width="10" height="10" fill="#fff"/></clipPath><clipPath id="clip0_8991_35043-9"><rect id="rect5-5" width="10" height="10" x="0" y="0" fill="#fff"/></clipPath><clipPath id="clip0_8991_35043-1"><rect id="rect5-0" width="10" height="10" x="0" y="0" fill="#fff"/></clipPath></defs><path style="display:inline;opacity:1;fill:none;stroke:#225158;stroke-linecap:round;stroke-linejoin:round;stroke-opacity:1" id="path1" d="m 15.5,22.5 -14,-14 m 21,7 L 21.525532,14.525532 20.96383,13.96383 8.5,1.5 m 0,21 -7,-7 m 21,-7 -7,-7 M 2.086,2.086 21.914,21.914"/><path style="display:inline;fill:none;stroke:#009688;stroke-linecap:round;stroke-linejoin:round" id="path2" d="m 8.5,22.5 14,-14 m -21,7 14,-14 m 0,21 7,-7 m -21,-7 7,-7 M 21.914,2.086 2.086,21.914"/><path style="fill:none;stroke:#949494;stroke-linecap:round;stroke-linejoin:round" id="path3" d="M3.5,1.5h17a2,2,0,0,1,2,2v17a2,2,0,0,1-2,2H3.5a2,2,0,0,1-2-2V3.5A2,2,0,0,1,3.5,1.5Z"/></svg>