<svg xmlns="http://www.w3.org/2000/svg" xmlns:svg="http://www.w3.org/2000/svg" id="svg3" width="24" height="24" version="1.1" viewBox="0 0 24 24" xml:space="preserve"><defs id="defs3"><clipPath id="clip0_8991_35043"><rect id="rect5" width="10" height="10" fill="#fff"/></clipPath><clipPath id="clip0_8991_35043-9"><rect id="rect5-5" width="10" height="10" x="0" y="0" fill="#fff"/></clipPath><clipPath id="clip0_8991_35043-1"><rect id="rect5-0" width="10" height="10" x="0" y="0" fill="#fff"/></clipPath><clipPath id="clip0_252_3415"><rect id="rect20" width="10" height="10" fill="#fff"/></clipPath></defs><path style="display:inline;fill:none;stroke:gray;stroke-linecap:round;stroke-linejoin:round;stroke-opacity:.5" id="path1-7" d="M 1.5004197,15.581383 15.500418,1.5813815 M 8.5004192,22.581384 9.4748874,21.606912 10.036589,21.045211 22.500419,8.5813815 m -20.9999991,0 6.9999993,-7 m 6.9999988,21.0000025 7,-7 M 21.914418,2.1673815 2.0864196,21.995381"/><path style="display:inline;fill:none;fill-opacity:1;stroke:#8c8c8c;stroke-width:1.044;stroke-linecap:butt;stroke-linejoin:round;stroke-miterlimit:10;stroke-dasharray:none;stroke-opacity:1;paint-order:fill markers stroke" id="path3-5" d="M 6.1489271,4.7722047 H 17.851072 a 1.3767229,1.3767229 0 0 1 1.376724,1.3767229 V 17.851073 a 1.3767229,1.3767229 0 0 1 -1.376724,1.376722 H 6.1489271 A 1.3767229,1.3767229 0 0 1 4.7722043,17.851073 V 6.1489276 A 1.3767229,1.3767229 0 0 1 6.1489271,4.7722047 Z"/><path id="path1-1" d="M 5.2397203,18.841426 2.085444,21.995703" style="display:inline;fill:none;stroke:#008a79;stroke-linecap:butt;stroke-linejoin:round;stroke-opacity:1"/><path id="path12" d="M 21.913442,2.1677021 18.759166,5.3219792" style="display:inline;fill:none;stroke:#008a79;stroke-linecap:butt;stroke-linejoin:bevel;stroke-opacity:1"/><path id="path11" d="m 15.499444,22.581703 6.999998,-7" style="display:inline;fill:none;stroke:#008a79;stroke-linecap:round;stroke-linejoin:round;stroke-opacity:1"/><path id="path10" d="M 1.499444,8.5817026 8.4994443,1.5817021" style="display:inline;fill:none;stroke:#008a79;stroke-linecap:round;stroke-linejoin:round;stroke-opacity:1"/><path id="path9" d="M 19.157654,11.92349 22.499441,8.5817026" style="display:inline;fill:none;stroke:#008a79;stroke-linecap:round;stroke-linejoin:round;stroke-opacity:1"/><path id="path7" d="m 8.4994443,22.581703 0.974468,-0.974468 0.5617017,-0.561702 1.804682,-1.804682" style="display:inline;fill:none;stroke:#008a79;stroke-linecap:round;stroke-linejoin:round;stroke-opacity:1"/><path id="path6" d="M 12.1596,4.9215459 15.499444,1.581702" style="display:inline;fill:none;stroke:#008a79;stroke-linecap:round;stroke-linejoin:round;stroke-opacity:1"/><path id="path4" d="M 1.4994439,15.581703 4.8392878,12.241859" style="display:inline;fill:none;stroke:#008a79;stroke-linecap:round;stroke-linejoin:round;stroke-opacity:1"/><path style="display:inline;opacity:1;fill:none;stroke:#009688;stroke-linecap:round;stroke-linejoin:round;stroke-opacity:1" id="path1" d="m 15.499443,22.581702 -14,-13.9999989 m 21,6.9999999 L 21.524975,14.607235 20.963273,14.045533 8.499443,1.5817029 m 0,20.9999991 -7,-6.999999 m 21,-6.9999999 -7,-7 m -13.414,0.586 19.828,19.8279989"/><path style="display:inline;fill:none;stroke:#999;stroke-linecap:round;stroke-linejoin:round;stroke-opacity:1" id="path3" d="m 3.499443,1.581703 h 17 a 2,2 0 0 1 2,2 v 16.999999 a 2,2 0 0 1 -2,2 h -17 a 2,2 0 0 1 -2,-2 V 3.581703 a 2,2 0 0 1 2,-2 z"/></svg>