<svg xmlns="http://www.w3.org/2000/svg" xmlns:svg="http://www.w3.org/2000/svg" id="svg2" width="43" height="43" version="1.1" viewBox="0 0 43 43"><rect style="fill:#54545a" id="rect1" width="40" height="40" x="1.5" y="1.5" rx="3.5"/><path style="fill:#009688" id="path1" d="M38,2a3,3,0,0,1,3,3V38a3,3,0,0,1-3,3H5a3,3,0,0,1-3-3V5A3,3,0,0,1,5,2H38m0-1H5A4,4,0,0,0,1,5V38a4,4,0,0,0,4,4H38a4,4,0,0,0,4-4V5a4,4,0,0,0-4-4Z"/><line style="fill:none;stroke:#009688;stroke-width:.866675;stroke-linecap:round;stroke-linejoin:round" id="line1" x1="9.724" x2="34.156" y1="6.507" y2="6.507"/><line style="fill:none;stroke:#009688;stroke-linecap:round;stroke-linejoin:round" id="line1-2" x1="22.228" x2="22.228" y1="7.649" y2="31.965"/><line style="fill:none;stroke:#009688;stroke-width:.675072;stroke-linecap:round;stroke-linejoin:round" id="line1-2-2" x1="22.195" x2="10.588" y1="7.475" y2="19.082"/><line style="fill:none;stroke:#009688;stroke-width:.675072;stroke-linecap:round;stroke-linejoin:round" id="line1-2-2-7" x1="33.869" x2="22.262" y1="19.081" y2="7.474"/></svg>