<svg xmlns="http://www.w3.org/2000/svg" xmlns:svg="http://www.w3.org/2000/svg" id="svg2" width="43" height="43" version="1.1" viewBox="0 0 43 43"><rect style="fill:#e9e9e9;fill-opacity:1" id="rect1" width="40" height="40" x="1.5" y="1.5" rx="3.5"/><path style="fill:#009688" id="path1" d="M38,2a3,3,0,0,1,3,3V38a3,3,0,0,1-3,3H5a3,3,0,0,1-3-3V5A3,3,0,0,1,5,2H38m0-1H5A4,4,0,0,0,1,5V38a4,4,0,0,0,4,4H38a4,4,0,0,0,4-4V5a4,4,0,0,0-4-4Z"/><line style="fill:none;stroke:#009688;stroke-width:.850459;stroke-linecap:round;stroke-linejoin:round" id="line1" x1="33.471" x2="9.945" y1="6.933" y2="6.933"/><line style="fill:none;stroke:#009688;stroke-width:.714338;stroke-linecap:round;stroke-linejoin:round" id="line1-1" x1="32.3" x2="21.988" y1="18.26" y2="8.08"/><line style="fill:none;stroke:#009688;stroke-width:.720111;stroke-linecap:round;stroke-linejoin:round" id="line1-1-1" x1="11.505" x2="21.856" y1="18.33" y2="8.023"/><line style="fill:none;stroke:#009688;stroke-width:.623622;stroke-linecap:round;stroke-linejoin:round" id="line1-1-1-2" x1="21.938" x2="21.938" y1="36.433" y2="8.625"/></svg>